# xmcd
#
# Track frame offsets:
#	150
#	16540
#	31123
#	40962
#	94214
#	113582
#	127958
#	143466
#
# Disc length: 2711 seconds
#
# Revision: 0
# Processed by: cddbd v1.5.2PL0 Copyright (c) Steve Scherf et al.
# Submitted via: EZCDAudioConverter 3.1.0.1
#
DISCID=520a9508
DTITLE=Keçen Serhede 2 - Berivan
DYEAR=2007
DGENRE=Folklore
TTITLE0=Keçıke Me Hate Cemme
TTITLE1=Keçe Gunde Me Buhare
TTITLE2=Welle Xeja Min Naye
TTITLE3=Çavreş Sing Zozane
TTITLE4=Ji Kira Dikene
TTITLE5=Sera Govende Di Lize
TTITLE6=Wya Meyro
TTITLE7=Aşixim Ketiye
EXTD=
EXTT0=
EXTT1=
EXTT2=
EXTT3=
EXTT4=
EXTT5=
EXTT6=
EXTT7=
PLAYORDER=
